<svg width="108" height="99" viewBox="0 0 108 99" fill="none" xmlns="http://www.w3.org/2000/svg">
<g clip-path="url(#clip0_32_43)">
<path d="M78.0221 5.52491C68.5621 5.59464 59.7165 -1.26168 42.7462 4.26654C42.7462 4.26654 27.1943 9.90765 20.5012 32.5485C20.5012 32.5485 43.7726 38.5083 55.3685 32.2065C70.7842 24.9451 77.9623 5.53155 78.0188 5.52491H78.0221Z" stroke="white" stroke-width="4" stroke-linecap="round" stroke-linejoin="round"/>
<path d="M61.6198 13.5466C61.6198 13.5466 26.314 17.1425 11.6822 44.0963" stroke="white" stroke-width="4" stroke-linecap="round" stroke-linejoin="round"/>
<path d="M2.11255 57.2113C6.90236 65.3692 5.38769 76.4522 18.6577 88.3752C18.6577 88.3752 31.3198 99.0166 54.2856 93.4884C54.2856 93.4884 47.8151 70.3628 36.5547 63.4766C22.554 53.7615 2.14577 57.2545 2.11255 57.2113Z" stroke="white" stroke-width="4" stroke-linecap="round" stroke-linejoin="round"/>
<path d="M17.2626 67.3978C17.2626 67.3978 38.0295 96.1645 68.6983 95.351" stroke="white" stroke-width="4" stroke-linecap="round" stroke-linejoin="round"/>
<path d="M86.9607 96.8883C91.6309 88.6641 101.994 84.4341 105.688 66.9828C105.688 66.9828 108.578 50.7003 92.3052 33.5844C92.3052 33.5844 75.5043 50.7501 75.1688 63.9415C73.7505 80.9179 86.9839 96.8385 86.9607 96.8883Z" stroke="white" stroke-width="4" stroke-linecap="round" stroke-linejoin="round"/>
<path d="M88.2096 78.68C88.2096 78.68 102.748 46.3175 86.7115 20.1772" stroke="white" stroke-width="4" stroke-linecap="round" stroke-linejoin="round"/>
</g>
<defs>
<clipPath id="clip0_32_43">
<rect width="108" height="99" fill="white"/>
</clipPath>
</defs>
</svg>
